<?xml version="1.0" encoding="UTF-8"?>
<svg id="Layer_1" data-name="Layer 1" xmlns="http://www.w3.org/2000/svg" viewBox="0 0 371.77 376.2">
  <defs>
    <style>
      .cls-1 {
        fill: #b9bdbe;
      }

      .cls-2 {
        fill: #020c14;
      }

      .cls-3 {
        fill: #d3d9d5;
      }

      .cls-4 {
        fill: #133448;
      }

      .cls-5 {
        fill: #346b89;
      }

      .cls-6 {
        fill: #0d2332;
      }

      .cls-7 {
        fill: #05101c;
      }

      .cls-8 {
        fill: #346986;
      }

      .cls-9 {
        fill: #0d1f2d;
      }

      .cls-10 {
        fill: #e3f3f2;
      }

      .cls-11 {
        fill: #12212f;
      }

      .cls-12 {
        fill: #306b88;
      }

      .cls-13 {
        fill: #10212e;
      }

      .cls-14 {
        fill: #0f1f2c;
      }

      .cls-15 {
        fill: #356c8b;
      }
    </style>
  </defs>
  <path class="cls-14" d="m370.96,202.62c-.08.66-.15,1.33-.23,1.99-.01,1.65-.02,3.29-.03,4.94-2.14,10.67-4.28,21.34-6.41,32.02-.19.95-.32,1.9-.48,2.86-.23.38-.46.76-.69,1.14-.1.65-.19,1.29-.29,1.94-.23.35-.47.7-.7,1.06-.04.69-.09,1.37-.13,2.06-1.69,3.67-3.37,7.33-5.06,11-.37-2.51-.46-5.11-1.23-7.49-.32-1-2.69-2.41-3.11-2.13-3.71,2.52-7.6,5.01-10.63,8.26-2.39,2.56-11.02,5.98-14.33,4.41-.38-.18-.56-.79-.83-1.2,1.71-5.11,3.43-10.22,5.36-15.97-21.07,4.48-40.66,9.55-56.47,24.52h26.17c1,.01,2,.02,2.99.03,1,0,2.01,0,3.01,0,1.67,1.21,3.34,4.46,5.02,0,1.99,0,3.98-.02,5.96-.02.92.88,1.86,1.75,2.76,2.66.98.99,2.65,1.93,2.78,3.03.53,4.68-3.09,9.21-7.94,10.54-1.38,6.55-1.94,6.76-6.9,2.57-3.87-3.27-11.53-3.02-14.69.48-19,.05-38,.11-57,.16-1.37-.97-2.62-2.27-4.14-2.84-3.92-1.48-10.95-8.91-10.75-12.48.19-3.4-1.38-4.8-4.19-5.6,3.66-2.33,7.32-4.67,10.99-7,3.94-3.73,2.16-7.9.94-12.03,0-23.95,0-47.91-.01-71.86.29-6.43.87-12.86.7-19.27-.05-1.78-2.31-2.89-3.53.02-2.23-.27-4.46-.69-6.7-.79-16.8-.78-33.61-1.87-50.42-2.1-9.3-.13-18.61,1.22-27.92,1.91-.67-.28-1.34-.57-2.01-.85-.77-1.46-1.54-2.92-2.08-3.94-4.07-2.88-7.97-5.63-12.26-8.66-.41,1.09-1.42,2.55-1.44,4.02-.11,6.04.22,12.09.06,18.13-.04,1.49-1.21,4.14-2.03,4.21-4.01.32-4.63,2.86-5.32,6.01-.48,2.18-1.88,4.17-2.87,6.24,0-5.08.13-10.16-.11-15.23-.06-1.27-1.3-2.49-2-3.73l-20.73,5.91c-.39,1.53-1.12,3.05-1.12,4.58-.08,18.42-.07,36.84,0,55.26,0,1.4.6,2.8.92,4.2.84.68,1.59,1.52,2.53,2.01,5.82,3.04,11.67,6,17.52,8.99-2.29-.14-4.76.24-6.83-.51-4.52-1.65-5.11-1.48-5.16,3.48-.07,6.47-.02,12.93-.02,19.6-4.22-.45-6.46-2.91-7.23-7.44-.95-5.6-1.8-5.78-6.8-4.21-1.61.51-3.58-.07-5.38-.27-3.89-.43-7.77-.95-11.65-1.43l-2.94-1.07c-.72-.27-1.45-.55-2.17-.82-1.28-.43-2.55-.85-3.83-1.28-1.05-3.9-2.87-5.22-6.1-1.83-1.64-.46-3.27-.93-4.91-1.39-2.67-.59-5.33-1.19-8-1.78l.11,4.72c.37,3.2-1.8,7.63,3.99,8.2,0,0,0-.02,0-.02-1.08,1.33-2.05,3.7-3.27,3.83-6.1.68-6.16,1.51-4.92,7.49,1.13,5.49.61,11.36.46,17.05-.04,1.62-1.36,3.21-2.09,4.82,1.9.62,3.84,1.14,5.68,1.91,1.65.69,4.21,1.4,4.49,2.56.35,1.44-1.12,3.4-2,5.04-.7,1.3-1.69,2.44-2.54,3.65-4.98-7.21-10.8-13.99-14.75-21.72-6.27-12.28-11.92-24.96-16.63-37.92-3.44-9.46-5.88-19.51-7.09-29.5C.62,204.16-.23,190.4.06,176.75c.36-17.2,4.01-33.98,9.79-50.29,8.43-23.79,21.36-44.98,38.02-63.63,9.28-10.39,20.14-19.55,31.1-28.22,17.54-13.87,37.73-23.09,59.28-28.61,11.72-3.01,24-4.2,36.11-5.27,9.25-.82,18.75-1.1,27.93.02,11.53,1.4,22.99,4,34.26,6.92,26.86,6.96,50.07,21.05,70.81,39,19.23,16.64,34.71,36.59,45.34,59.77,5.63,12.28,9.47,25.39,14.06,38.14.32.89.12,1.98.16,2.97-.17.73-.56,1.48-.48,2.17.75,6.03,1.96,12.04,2.33,18.09.63,10.38.72,20.79,1.13,31.18.05,1.22.69,2.42,1.05,3.63Zm-92.05-30.06l-.3.1c-.25-.36-.5-.72-.75-1.07-6.33-1.61-12.65-3.23-18.98-4.84-.26.28-.52.56-.78.84-.02,25.98-.03,51.97-.05,77.95.63.03,1.27.05,1.9.08,6.25-3.03,12.5-6.06,18.75-9.09.39-1.67,1.1-3.35,1.12-5.03.12-8.25.1-16.5,0-24.74-.02-1.73-.58-3.45-.89-5.17,0-2.01,0-4.02,0-6.02-.01-6.66-.02-13.32-.03-19.99,0-.67,0-1.33,0-2,.13-.1.38-.23.36-.28-.08-.26-.23-.49-.35-.73Zm25.93,53.02c6.64-1.41,13.28-2.83,20.01-4.26,0-9.71.07-18.85-.09-27.99-.02-1.18-1.01-2.89-2.03-3.41-5.85-2.93-11.85-5.57-17.79-8.31-.69.94-1.96,1.88-1.97,2.83-.13,13.16-.11,26.32,0,39.48,0,.56,1.23,1.1,1.89,1.65Zm-239.33-.1c.04-14.27.08-28.55.12-42.82-.59-.33-1.19-.65-1.78-.98-5.1,2.32-10.28,4.49-15.26,7.05-1.24.64-2.59,2.49-2.62,3.81-.22,8.64-.19,17.29.03,25.94.03,1.17,1.37,3,2.45,3.32,5.3,1.59,10.72,2.76,16.1,4.09.32-.14.64-.27.96-.41Zm133.33-94.77c9.95.64,19.91,1.28,30.05,1.93.4-17.67-8.09-29.84-21.94-37.87-15.53-9.01-31.44-8.54-46.52,2.14-12.27,8.69-17.88,20.67-18.6,35.71,1.24,0,1.88.04,2.52,0,8.85-.61,17.7-1.24,26.55-1.86,9.31-.01,18.63-.03,27.94-.04Zm54.88-14.16c.34,1.02.67,2.03,1.01,3.05,0,.98,0,1.97,0,2.95.15.29.21.59.18.91.28,4.7.57,9.39.85,14.09,6.17,1.67,12.42,3.07,18.48,5.07,16.25,5.37,32.49,10.81,48.59,16.61,6.11,2.2,11.83,5.46,18.47,8.58-.54-2.93-1.12-5.29-1.4-7.67-2.6-22.11-11.11-41.9-23.24-60.35-10.47-15.94-23.77-29.2-38.8-40.69-15.29-11.69-32.17-20.63-50.92-25.4-9.08-2.31-18.37-4.53-27.67-5.08-12.95-.77-26.22-1.45-38.93.56-19.99,3.16-38.71,10.8-55.8,22.03-11.19,7.34-21.72,15.42-30.64,25.47-.98.98-1.96,1.96-2.94,2.94l-1.1.94c-3.27,3.89-6.99,7.5-9.73,11.73-5.58,8.6-10.63,17.54-15.9,26.33-.32.69-.63,1.38-.95,2.07-1.13,2.31-2.26,4.61-3.39,6.92-5.82,12.3-8.23,25.41-9.65,39.06,27.03-13.73,55.15-22.73,84.09-28.28.54-5.24,1.03-10.14,1.56-15.03,1.8-16.72,9.17-30.69,21.21-42.25,19.01-18.27,42.11-22.79,66.56-16.4,25.67,6.71,42.94,23.7,50.09,49.92,0,.65-.01,1.3-.02,1.96Z"/>
  <path class="cls-9" d="m68.8,255.78c3.88.48,7.76.99,11.65,1.43,1.79.2,3.77.78,5.38.27,5-1.58,5.84-1.39,6.8,4.21.77,4.54,3.01,7,7.23,7.44,0-6.67-.05-13.14.02-19.6.05-4.96.65-5.14,5.16-3.48,2.06.75,4.54.38,6.83.51.43-1,.86-2,1.29-3,.57-1.71,1.62-3.42,1.63-5.13.13-17.95.09-35.9.1-53.85.99-2.07,2.39-4.06,2.87-6.24.69-3.15,1.31-5.69,5.32-6.01.82-.07,1.99-2.72,2.03-4.21.16-6.04-.17-12.09-.06-18.13.03-1.47,1.03-2.93,1.44-4.02,4.29,3.03,8.19,5.79,12.26,8.66.54,1.01,1.31,2.48,2.08,3.94.02.37.05.75.07,1.12,0,.33-.11.63-.29.9-.58,0-1.17-.02-1.75-.02-.27-.02-.55-.05-.82-.07.27.69.54,1.38.81,2.07,0,.68,0,1.35,0,2.03,0,2.32,0,4.64,0,6.96,0,7.01,0,14.02,0,21.03,0,1.66,0,3.31,0,4.97,0,9.01,0,18.02,0,27.03,0,4.99,0,9.98,0,14.97,0,5.34,0,10.67.01,16.01,0,1.33,0,2.67,0,4l1.88,3.03c14.25,9.45,27.68,19.9,39.26,32.56-.71,3.88,1.54,6.81,4.7,6.97,6.6.33,6.89,3.43,5.26,8.44-.39,1.2-.15,2.64-.09,3.97.16,3.44-.85,5.71-4.79,6.2-1.15.14-2.09,1.92-3.13,2.94,1.11.96,2.07,2.46,3.35,2.81,6.71,1.82,13.36,1.97,19.57-1.87,1.28-.79,2.95-1.31,3.7-2.44.41-.63-.43-3-1.21-3.3-1.25-.48-3.11-.29-4.36.32-4.58,2.24-6.78,1.17-7.13-3.94-.53-7.84-.96-15.68-1.44-23.52.37-.37.73-.73,1.1-1.1.58.79,1.22,1.55,1.72,2.39,1.29,2.18,1.88,5.49,5.61,3.98,3.49-1.42,4.36-4.01,3.26-7.7-.36-1.21.86-4.16,1.32-4.15,4.65.08,5.53-4.02,7.97-6.45,2.25-2.25,2.49-4,.4-6.23.99-.64,1.98-1.28,2.97-1.92,2.82.8,4.38,2.2,4.19,5.6-.2,3.57,6.83,11,10.75,12.48,1.52.57,2.77,1.87,4.14,2.85-5.65,4.56-11.41,9-16.93,13.72-3.26,2.79-6.16,6.02-9.21,9.04.25.41.5.81.75,1.22,1.62,0,3.24.04,4.85,0,8.8-.23,17.61-.59,26.41-.68,11.65-.11,23.3.06,34.95-.08,2.02-.02,4.48-.44,5.95-1.64,5.26-4.27,10.18-8.96,15.23-13.48.31-.4.63-.8.94-1.2.95-.96,1.91-1.93,2.86-2.89,1.88-.2,3.76-.39,7.26-.76-3.57,3.96,2.67,10.36-5.6,11.61-.44.07-.61,1.95-.9,2.99,1.1-.04,2.24.1,3.29-.15,1.36-.33,2.79-1.6,3.94-1.34,5.1,1.14,10.11,2.68,15.16,4.08-6.05,6.5-12.1,12.99-18.15,19.49,0,0,.04-.04.04-.04-.62.36-1.25.72-1.87,1.09-15.19,12.84-32.2,22.53-50.52,30.21-15.1,6.33-30.88,10.47-46.89,12.41-14.46,1.76-29.31,1.1-43.95.47-19.31-.84-37.44-7.02-55.05-14.63-15.1-6.53-29.25-14.88-41.72-25.52-9.79-8.35-18.45-18.02-27.58-27.14-.29-.29-.26-.92-.37-1.4.86-1.21,1.85-2.35,2.54-3.65.88-1.63,2.35-3.6,2-5.04-.29-1.16-2.85-1.87-4.49-2.56-1.84-.77-3.78-1.28-5.68-1.91.73-1.6,2.05-3.19,2.09-4.82.16-5.69.67-11.56-.46-17.05-1.23-5.98-1.17-6.81,4.92-7.49,1.22-.14,2.19-2.5,3.27-3.83,1.42,2.61,2.66,5.34,4.32,7.78.92,1.35,2.51,3.17,3.82,3.19,14.23.23,28.46.14,42.69.14.17-.44.33-.88.5-1.32-9.16-4.84-18.31-9.68-27.47-14.52Zm51.99,77.66c-.34-.2-.67-.41-1.02-.6-.01,0-.15.22-.23.34.39.13.78.26,1.17.39,4.01,1.95,7.85,4.44,12.05,5.77,33.34,10.59,66.95,11.38,100.66,1.81,6.32-1.79,12.39-4.45,18.57-6.71-.1-.33-.21-.66-.31-1-43.63,0-87.26,0-130.88,0Zm37.26-18.7c.19-.43.38-.85.57-1.28-6.76-6.34-13.39-12.82-20.38-18.91-1.91-1.66-4.88-2.94-7.38-2.97-20.13-.23-40.26-.12-60.39-.09-1.37,0-2.74.23-5.71.49,7.59,7.1,14.12,13.17,20.59,19.29,2.96,2.8,6.33,3.68,10.42,3.55,9.14-.28,18.3-.09,27.45-.09,11.61,0,23.22,0,34.83,0Zm52.81-23.47c-.05,4.8,2.04,7.15,6.95,7.02,3.87-.11,4.97-2.95,5.1-6.5.16-4.4-1.61-6.32-6.11-6.27-4.16.05-6.23,1.64-5.93,5.76Zm19.04.18c-.29-.56-.59-1.12-.88-1.68-.94.55-1.89,1.1-2.83,1.65.21.42.43.83.64,1.25,1.02-.41,2.05-.81,3.07-1.22Z"/>
  <path class="cls-7" d="m370.96,202.62c-.36-1.21-1-2.41-1.05-3.63-.41-10.39-.5-20.8-1.13-31.18-.37-6.05-1.57-12.05-2.33-18.09-.09-.69.31-1.45.48-2.17,1.34,7.09,3.31,14.13,3.89,21.29.85,10.52.73,21.11.96,31.68.02.7-.53,1.4-.81,2.11Z"/>
  <path class="cls-7" d="m370.69,209.55c.01-1.65.02-3.29.03-4.94-.01,1.65-.02,3.29-.03,4.94Z"/>
  <path class="cls-10" d="m306.82,332.44c.62-.36,1.25-.72,1.87-1.09-.62.36-1.25.72-1.87,1.09Z"/>
  <path class="cls-10" d="m362.13,248.55c.23-.35.47-.7.7-1.06-.23.35-.47.7-.7,1.06Z"/>
  <path class="cls-10" d="m363.12,245.56c.23-.38.46-.76.69-1.14-.23.38-.46.76-.69,1.14Z"/>
  <path class="cls-12" d="m303.66,295.49c-.95.96-1.91,1.93-2.86,2.89-.31.4-.63.8-.94,1.2-5.05,4.53-9.97,9.21-15.23,13.48-1.47,1.2-3.94,1.61-5.95,1.64-11.65.14-23.3-.04-34.95.08-8.81.09-17.61.45-26.41.68-1.62.04-3.24,0-4.85,0-.25-.41-.5-.81-.75-1.22,3.06-3.03,5.95-6.25,9.21-9.04,5.52-4.72,11.27-9.16,16.93-13.72,19-.05,38-.11,57-.16,3.69,0,7.38,0,12.08,0-1.56,1.99-2.42,3.08-3.28,4.17Z"/>
  <path class="cls-6" d="m303.66,295.49c.86-1.09,1.72-2.19,3.28-4.17-4.7,0-8.39,0-12.08,0,3.16-3.5,10.82-3.75,14.69-.48,4.96,4.19,5.52,3.98,6.9-2.57,4.86-1.33,8.47-5.86,7.94-10.54-.12-1.1-1.79-2.04-2.78-3.03-.9-.9-1.84-1.77-2.76-2.66,1.55-1.28,3.26-2.41,4.62-3.87,1.3-1.39,2.24-3.12,3.34-4.7.27.41.45,1.01.83,1.2,3.31,1.57,11.94-1.85,14.33-4.41,3.03-3.25,6.91-5.74,10.63-8.26.42-.28,2.78,1.13,3.11,2.13.77,2.38.87,4.98,1.23,7.49-6.39,11.99-12.53,24.13-19.29,35.91-2.97,5.17-7.2,9.61-10.85,14.39-5.04-1.4-10.06-2.94-15.16-4.08-1.15-.26-2.58,1.02-3.94,1.34-1.05.25-2.19.12-3.29.15.3-1.04.46-2.92.9-2.99,8.27-1.25,2.03-7.65,5.6-11.61-3.5.37-5.38.56-7.26.76Z"/>
  <path class="cls-8" d="m326.81,263.47c-1.1,1.58-2.04,3.31-3.34,4.7-1.36,1.46-3.07,2.59-4.62,3.87-1.99,0-3.98.02-5.96.02-1.67,0-3.35,0-5.02,0-1,0-2.01,0-3.01,0-1-.01-2-.02-2.99-.03h-26.17c15.82-14.97,35.4-20.04,56.47-24.52-1.93,5.75-3.64,10.86-5.36,15.97Z"/>
  <path class="cls-5" d="m68.8,255.78c9.16,4.84,18.31,9.68,27.47,14.52-.17.44-.33.88-.5,1.32-14.23,0-28.47.09-42.69-.14-1.31-.02-2.91-1.84-3.82-3.19-1.66-2.45-2.9-5.17-4.32-7.78,0,0,0,.02,0,.02-1.33-2.73-2.66-5.47-3.98-8.2-.04-1.57-.07-3.15-.11-4.72,2.67.59,5.33,1.19,8,1.78,1.64.46,3.27.93,4.91,1.39,2.04.61,4.07,1.22,6.1,1.83,1.28.43,2.55.85,3.83,1.28.72.27,1.45.55,2.17.82l2.94,1.07Z"/>
  <path class="cls-7" d="m113.15,243.56c-.08-24.15-.15-48.31-.24-72.46,0-1.83-.09-3.66-.14-5.49.7,1.24,1.94,2.46,2,3.73.24,5.07.11,10.15.11,15.23,0,17.95.03,35.9-.1,53.85-.01,1.71-1.06,3.42-1.63,5.13Z"/>
  <path class="cls-2" d="m304.93,181.61c-.03,14.65-.06,29.31-.09,43.96-.66-.55-1.88-1.09-1.89-1.65-.11-13.16-.12-26.32,0-39.48,0-.95,1.28-1.89,1.97-2.83Z"/>
  <path class="cls-2" d="m92.04,171.52c-.07,21.35-.14,42.69-.21,64.04-.32-1.4-.91-2.8-.92-4.2-.06-18.42-.07-36.84,0-55.26,0-1.53.73-3.06,1.12-4.58Z"/>
  <path class="cls-7" d="m230.7,179.65c-.28-5.25-.45-10.51-.92-15.74-.11-1.22-1.25-2.34-1.91-3.51,1.22-2.91,3.48-1.8,3.53-.02.17,6.41-.4,12.85-.7,19.27Z"/>
  <path class="cls-2" d="m278.7,236.53c.08-11.65.16-23.29.24-34.94.31,1.72.87,3.45.89,5.17.1,8.25.11,16.5,0,24.74-.02,1.68-.73,3.35-1.12,5.03Z"/>
  <path class="cls-2" d="m170.89,130.75c9.31-.01,18.63-.03,27.94-.04-9.31.01-18.63.03-27.94.04Z"/>
  <path class="cls-7" d="m229.77,263.54c.31-4.01.63-8.02.94-12.03,1.22,4.13,2.99,8.31-.94,12.03Z"/>
  <path class="cls-2" d="m278.93,195.56c-.01-6.66-.02-13.32-.03-19.99.01,6.66.02,13.32.03,19.99Z"/>
  <path class="cls-9" d="m40.96,252.32c1.33,2.73,2.66,5.47,3.98,8.2-5.78-.57-3.62-5-3.98-8.2Z"/>
  <path class="cls-9" d="m59.86,252.61c-2.03-.61-4.07-1.22-6.1-1.83,3.23-3.38,5.06-2.06,6.1,1.83Z"/>
  <path class="cls-10" d="m43.27,120.67c1.16,3.43.57,5.99-3.39,6.92,1.13-2.31,2.26-4.61,3.39-6.92Z"/>
  <path class="cls-2" d="m254.89,123.46c.28,4.7.57,9.39.85,14.09-.28-4.7-.57-9.39-.85-14.09Z"/>
  <path class="cls-6" d="m307.87,272.05c1.67,0,3.35,0,5.02,0-1.68,4.45-3.35,1.21-5.02,0Z"/>
  <path class="cls-9" d="m48.85,249.39c-2.67-.59-5.33-1.19-8-1.78,2.67.59,5.33,1.19,8,1.78Z"/>
  <path class="cls-10" d="m73.89,76.66c-.98.98-1.96,1.96-2.94,2.94.98-.98,1.96-1.96,2.94-2.94Z"/>
  <path class="cls-6" d="m301.86,272.02c1,0,2,.02,2.99.03-1,0-2-.02-2.99-.03Z"/>
  <path class="cls-9" d="m65.87,254.71c-.72-.27-1.45-.55-2.17-.82.72.27,1.45.55,2.17.82Z"/>
  <path class="cls-2" d="m254.72,119.6c0,.98,0,1.97,0,2.95,0-.98,0-1.97,0-2.95Z"/>
  <path class="cls-3" d="m258.05,245.54c.63.03,1.27.05,1.9.08-.63-.03-1.27-.05-1.9-.08Z"/>
  <path class="cls-2" d="m142.83,159.42c-.65.09-1.29.18-1.94.27-.02-.37-.05-.75-.07-1.12.67.28,1.34.57,2.01.85Z"/>
  <path class="cls-2" d="m253.73,114.59c0,.65-.01,1.3-.02,1.96,0-.65.01-1.3.02-1.96Z"/>
  <path class="cls-1" d="m65.62,182.65c-.59-.33-1.19-.65-1.78-.98.59.33,1.19.65,1.78.98Z"/>
  <path class="cls-1" d="m64.55,225.89c.32-.14.64-.27.96-.41-.32.14-.64.27-.96.41Z"/>
  <path class="cls-3" d="m258.88,166.74c-.26.28-.52.56-.78.84.26-.28.52-.56.78-.84Z"/>
  <path class="cls-1" d="m278.61,172.66c-.25-.36-.5-.72-.75-1.07.25.36.5.72.75,1.07Z"/>
  <path class="cls-2" d="m278.9,173.57c0-.34,0-.68,0-1.02.12.24.27.48.35.73.02.05-.23.19-.36.28Z"/>
  <path class="cls-15" d="m158.05,314.74c-11.61,0-23.22,0-34.83,0-9.15,0-18.31-.19-27.45.09-4.09.13-7.46-.75-10.42-3.55-6.48-6.12-13.01-12.19-20.59-19.29,2.98-.26,4.34-.48,5.71-.49,20.13-.03,40.26-.14,60.39.09,2.5.03,5.47,1.3,7.38,2.97,6.99,6.08,13.61,12.57,20.38,18.91-.19.43-.38.85-.57,1.28Z"/>
  <path class="cls-5" d="m120.79,333.43h130.89c.1.33.21.66.31,1-6.18,2.26-12.25,4.92-18.57,6.71-33.71,9.57-67.31,8.79-100.66-1.81-4.2-1.34-8.04-3.82-12.05-5.77l.08-.13Z"/>
  <path class="cls-14" d="m180,295.16c1.88,1.8,3.76,3.6,4.78,4.57,3.24-2.69,6.45-5.35,9.65-8.01.47,7.84.91,15.68,1.44,23.52.35,5.11,2.54,6.18,7.13,3.94,1.25-.61,3.11-.8,4.36-.32.77.29,1.62,2.67,1.21,3.3-.75,1.13-2.42,1.65-3.7,2.44-6.21,3.85-12.86,3.7-19.57,1.87-1.28-.35-2.24-1.84-3.35-2.81,1.04-1.03,1.99-2.8,3.13-2.94,3.95-.48,4.95-2.75,4.79-6.2-.06-1.33-.31-2.76.09-3.97,1.64-5.01,1.34-8.11-5.26-8.44-3.15-.16-5.41-3.09-4.7-6.97Z"/>
  <path class="cls-2" d="m140.6,160.58c.05,34.01.1,68.01.14,102.02-.63-1.01-1.25-2.02-1.88-3.03,0-1.33,0-2.67,0-4,0-5.34,0-10.67-.01-16.01,0-4.99,0-9.98,0-14.97,0-9.01,0-18.02,0-27.03,0-1.66,0-3.31,0-4.97,0-7.01,0-14.02,0-21.03,0-2.32,0-4.64,0-6.96,0-.68,0-1.35,0-2.03,0-.67,0-1.33.01-2,.58,0,1.17.02,1.75.02Z"/>
  <path class="cls-14" d="m195.53,290.63c6.76-6.05,13.52-12.11,20.28-18.16,2.08,2.23,1.85,3.98-.4,6.23-2.44,2.44-3.32,6.53-7.97,6.45-.46,0-1.68,2.94-1.32,4.15,1.1,3.69.23,6.27-3.26,7.7-3.73,1.52-4.32-1.8-5.61-3.98-.5-.84-1.14-1.6-1.72-2.39Z"/>
  <path class="cls-14" d="m210.86,291.27c-.3-4.12,1.78-5.71,5.93-5.76,4.5-.05,6.27,1.88,6.11,6.27-.13,3.55-1.23,6.39-5.1,6.5-4.9.14-7-2.22-6.95-7.02Z"/>
  <path class="cls-11" d="m138.84,224.59c0,4.99,0,9.98,0,14.97,0-4.99,0-9.98,0-14.97Z"/>
  <path class="cls-14" d="m229.91,291.44c-1.02.41-2.05.81-3.07,1.22-.21-.42-.43-.83-.64-1.25.94-.55,1.89-1.1,2.83-1.65.29.56.59,1.12.88,1.68Z"/>
  <path class="cls-11" d="m138.83,164.59c0,2.32,0,4.64,0,6.96,0-2.32,0-4.64,0-6.96Z"/>
  <path class="cls-11" d="m138.84,192.59c0,1.66,0,3.31,0,4.97,0-1.66,0-3.31,0-4.97Z"/>
  <path class="cls-11" d="m138.86,255.57c0,1.33,0,2.67,0,4,0-1.33,0-2.67,0-4Z"/>
  <path class="cls-11" d="m138.85,160.56c0,.67,0,1.33-.01,2-.27-.69-.54-1.38-.81-2.07.27.02.55.05.82.07Z"/>
  <path class="cls-4" d="m120.71,333.56c-.39-.13-.78-.26-1.17-.39.08-.12.21-.34.23-.34.35.18.68.39,1.02.6,0,0-.08.13-.08.13Z"/>
  <path class="cls-6" d="m299.86,299.57c.31-.4.63-.8.94-1.2-.31.4-.63.8-.94,1.2Z"/>
  <path class="cls-13" d="m200.93,247.44h-31.4c1.69-8.21,3.43-16.14,4.85-24.12.23-1.31-.54-3.42-1.58-4.25-7.21-5.73-9.23-13.43-7.8-21.9,1.29-7.63,6.65-12.87,13.81-14.92,15.55-4.47,27.75,7.49,27.35,18.49-.29,7.81-2.63,13.64-8.31,18.71-1.29,1.15-1.89,4.02-1.54,5.87,1.14,6.04,2.9,11.96,4.33,17.96.3,1.25.2,2.59.3,4.17Z"/>
</svg>