<?xml version="1.0" encoding="UTF-8"?>
<svg version="1.1" xmlns="http://www.w3.org/2000/svg" width="500" height="500">
<path d="M0 0 C1.33620392 0.00081573 1.33620392 0.00081573 2.69940186 0.00164795 C64.3456965 0.17357153 121.67515994 24.0209955 166.1875 66.375 C166.75549316 66.91431152 167.32348633 67.45362305 167.90869141 68.00927734 C176.5037011 76.22904207 184.12160511 84.81494365 191.1875 94.375 C191.6098291 94.93654785 192.0321582 95.4980957 192.46728516 96.07666016 C215.04537512 126.1489759 229.87755311 161.31828783 236.1875 198.375 C236.46352051 199.92501709 236.46352051 199.92501709 236.74511719 201.50634766 C238.49188344 212.62057606 238.55975636 223.69351746 238.55810547 234.92285156 C238.56244654 238.20952482 238.59879078 241.49481566 238.63671875 244.78125 C238.75193773 266.56772186 235.44268822 287.52275125 229.1875 308.375 C228.99575195 309.02581543 228.80400391 309.67663086 228.60644531 310.34716797 C218.82976769 343.06790745 200.69704809 373.95259076 177.4765625 398.8984375 C175.54166784 400.99182183 173.70173094 403.12582207 171.875 405.3125 C142.84668134 438.44923499 100.14907646 459.58116774 58.25 470.75 C57.40042725 470.97671387 56.55085449 471.20342773 55.67553711 471.43701172 C52.85696442 472.14652647 50.03086489 472.77215783 47.1875 473.375 C45.96490479 473.64352783 44.74230957 473.91205566 43.48266602 474.1887207 C30.63038574 476.78995047 17.81430089 476.86643886 4.73999023 476.82104492 C1.02335801 476.81255337 -2.69172222 476.84137023 -6.40820312 476.87304688 C-21.61098645 476.9182369 -35.96695161 475.67485562 -50.8125 472.375 C-52.04218506 472.10324951 -53.27187012 471.83149902 -54.53881836 471.55151367 C-57.44721595 470.85301416 -60.31525772 470.08378584 -63.1875 469.25 C-64.21020996 468.95633545 -65.23291992 468.6626709 -66.28662109 468.36010742 C-98.30892697 458.8472969 -128.59465866 443.41481551 -153.8125 421.375 C-154.97845703 420.37339844 -154.97845703 420.37339844 -156.16796875 419.3515625 C-167.60478402 409.31403132 -178.62511912 398.52554638 -187.8125 386.375 C-188.28333008 385.76414551 -188.75416016 385.15329102 -189.23925781 384.52392578 C-221.59624465 342.3497435 -238.34853121 291.77530977 -238.125 238.75 C-238.12284485 237.82679962 -238.1206897 236.90359924 -238.11846924 235.9524231 C-238.06595149 221.9103015 -237.63692266 208.17489753 -234.8125 194.375 C-234.60850586 193.37307617 -234.40451172 192.37115234 -234.19433594 191.33886719 C-224.28515265 144.21615712 -201.85252357 104.16480675 -168.8125 69.375 C-168.02746094 68.54742187 -167.24242187 67.71984375 -166.43359375 66.8671875 C-160.93283381 61.21882219 -155.01391502 56.2360271 -148.8125 51.375 C-147.92175781 50.66730469 -147.03101563 49.95960937 -146.11328125 49.23046875 C-104.07292311 16.68876894 -52.99589079 -0.12280489 0 0 Z " fill="#24323B" transform="translate(249.8125,11.625)"/>
<path d="M0 0 C2.71533203 1.32836914 2.71533203 1.32836914 5.5078125 3.03515625 C6.56250732 3.67146973 7.61720215 4.3077832 8.70385742 4.96337891 C9.53824844 5.47544891 9.53824844 5.47544891 10.38949585 5.99786377 C13.39228352 7.83990866 16.41441346 9.64984063 19.43359375 11.46484375 C20.05810928 11.84145142 20.68262482 12.21805908 21.32606506 12.6060791 C27.88545679 16.55354558 34.5299642 20.3462483 41.1875 24.125 C50.84789109 29.61795417 60.47162631 35.16943332 70.06323242 40.78173828 C77.35954604 45.0490624 84.6753039 49.28159717 92 53.5 C100.7843292 58.56032905 109.5560243 63.64161009 118.3125 68.75 C119.81586914 69.62688477 119.81586914 69.62688477 121.34960938 70.52148438 C126.56854356 73.56916882 126.56854356 73.56916882 129 75 C129.85898392 75.30650986 130.71796783 75.61301971 131.60298157 75.92881775 C134 78 134 78 134.4776926 80.04347801 C134.68429985 82.88086056 134.72107784 85.68157109 134.71044922 88.52661133 C134.72563599 89.60981155 134.74082275 90.69301178 134.75646973 91.80903625 C134.79896802 95.40034801 134.80376705 98.99048346 134.8046875 102.58203125 C134.81820915 105.07444246 134.8326356 107.56684892 134.84793091 110.05924988 C134.87338462 115.28901829 134.87888149 120.51848426 134.87158203 125.74829102 C134.86461174 131.1196857 134.89274491 136.48954604 134.95361328 141.8605957 C135.02605216 148.34177057 135.05451075 154.82160013 135.0485878 161.30316734 C135.05264315 163.77396896 135.07116732 166.2447906 135.10439682 168.71537209 C135.14613889 172.17354841 135.130767 175.62700436 135.10107422 179.08520508 C135.12557648 180.106203 135.15007874 181.12720093 135.17532349 182.17913818 C135.03464935 188.97172561 135.03464935 188.97172561 132.06245804 191.92560387 C129.76650084 193.48065329 127.48155435 194.76719044 125 196 C123.67297773 196.75551354 122.34823388 197.5150659 121.02734375 198.28125 C119.66571265 199.02386701 118.30235109 199.76331773 116.9375 200.5 C109.76524171 204.4290712 102.67903904 208.487652 95.625 212.625 C86.78264665 217.8082278 77.90586441 222.92702381 69 228 C59.33897226 233.50433585 49.7146444 239.06751902 40.11987305 244.68676758 C30.84261352 250.11136261 21.51259369 255.44201621 12.17382812 260.75976562 C11.05041016 261.39978516 9.92699219 262.03980469 8.76953125 262.69921875 C7.77542236 263.26471436 6.78131348 263.83020996 5.75708008 264.4128418 C2.9913437 265.94625173 2.9913437 265.94625173 0.5144043 267.76879883 C-2.81835662 269.40071584 -4.46797661 269.00984292 -8 268 C-10.6394043 266.76342773 -10.6394043 266.76342773 -13.32421875 265.18359375 C-14.33871094 264.59255859 -15.35320312 264.00152344 -16.3984375 263.39257812 C-17.48382813 262.74740234 -18.56921875 262.10222656 -19.6875 261.4375 C-20.84199305 260.76029167 -21.99695052 260.08387451 -23.15234375 259.40820312 C-26.77581993 257.28488155 -30.38834002 255.14333791 -34 253 C-35.1338916 252.32855957 -36.2677832 251.65711914 -37.43603516 250.96533203 C-41.9123622 248.31435385 -46.38771092 245.66177845 -50.85864258 243.00170898 C-59.85277198 237.65608615 -68.9015232 232.41234393 -77.98632812 227.22265625 C-79.98324401 226.07822492 -81.9643051 224.90565417 -83.92797852 223.70507812 C-87.00738792 221.88538065 -87.00738792 221.88538065 -90.61694336 220.71679688 C-94.5549164 219.07358691 -97.72759831 217.67498454 -100 214 C-102.20831864 205.44646775 -101.21159727 196.23032514 -100.8125 187.5 C-100.74725569 185.03140127 -100.68794621 182.56263808 -100.63476562 180.09375 C-100.49185105 174.05890095 -100.27470596 168.03021039 -100 162 C-116.93251976 171.65793529 -133.8426752 181.35300762 -150.72070312 191.10595703 C-154.14096806 193.08141976 -157.56245635 195.05474772 -160.984375 197.02734375 C-162.14957869 197.69913413 -163.31478053 198.37092772 -164.47998047 199.04272461 C-166.66119437 200.30022438 -168.84250157 201.55756235 -171.02392578 202.81469727 C-172.52415283 203.67985962 -172.52415283 203.67985962 -174.0546875 204.5625 C-175.02631836 205.12195313 -175.99794922 205.68140625 -176.99902344 206.2578125 C-179.12353665 207.4911778 -181.24069131 208.73725904 -183.35253906 209.9921875 C-184.4350293 210.63414062 -185.51751953 211.27609375 -186.6328125 211.9375 C-187.6139502 212.52402344 -188.59508789 213.11054688 -189.60595703 213.71484375 C-192 215 -192 215 -194 215 C-194 160.88 -194 106.76 -194 51 C-189.04050995 52.65316335 -185.13677803 54.5145413 -180.75 57.1875 C-179.24032055 58.09107662 -177.72985033 58.99333286 -176.21875 59.89453125 C-175.39117187 60.38904785 -174.56359375 60.88356445 -173.7109375 61.39306641 C-168.58360267 64.43234215 -163.41499919 67.40034166 -158.25 70.375 C-157.13286621 71.01904785 -156.01573242 71.6630957 -154.86474609 72.32666016 C-147.21475889 76.73368189 -139.54957705 81.11355293 -131.87915039 85.48486328 C-121.20727154 91.57806527 -110.60549378 97.79222431 -100 104 C-100.05329468 103.39215668 -100.10658936 102.78431335 -100.16149902 102.15805054 C-103.85813335 58.04786376 -103.85813335 58.04786376 -98.04736328 49.43603516 C-92.80074679 44.32402573 -86.32180745 42.22252416 -79.41650391 40.14501953 C-73.75927729 38.24903605 -68.8585618 35.16060545 -63.75 32.125 C-61.67523209 30.96014611 -59.59704178 29.80136885 -57.515625 28.6484375 C-51.09524801 25.06173331 -44.69968647 21.4327122 -38.31365967 17.78530884 C-36.51943334 16.76109332 -34.72386567 15.73925851 -32.92822266 14.7175293 C-27.79681454 11.78834146 -22.6895841 8.83843314 -17.6640625 5.73046875 C-16.88353516 5.2519043 -16.10300781 4.77333984 -15.29882812 4.28027344 C-13.90538537 3.41954397 -12.52031391 2.54502112 -11.14648438 1.65332031 C-6.9124329 -0.95730073 -4.76483019 -1.19269099 0 0 Z " fill="#FDFDFD" transform="translate(245,114)"/>
<path d="M0 0 C4.95946658 1.65315553 8.86328114 3.51448531 13.25 6.1875 C14.76356586 7.09371356 16.27794319 7.99857267 17.79296875 8.90234375 C18.62103027 9.39718262 19.4490918 9.89202148 20.30224609 10.40185547 C25.36136193 13.39886654 30.46488207 16.3191337 35.5625 19.25 C44.05684273 24.14096221 52.53771095 29.05378679 61 34 C69.3174901 38.86107581 77.65201634 43.69148209 86 48.5 C94.34798459 53.30851844 102.68243184 58.13905683 111 63 C119.27777213 67.83676509 127.56953256 72.64844276 135.875 77.4375 C136.94290771 78.05359131 138.01081543 78.66968262 139.11108398 79.30444336 C144.17671411 82.22532806 149.24473127 85.14191962 154.3192749 88.04728699 C156.09184277 89.06250835 157.86366231 90.07902339 159.63525391 91.09594727 C161.85088136 92.3672736 164.06791074 93.63616121 166.28662109 94.90209961 C172.35116464 98.38517331 178.24265276 102.02838316 184 106 C181.07370751 109.17440814 178.15654511 111.2534503 174.3984375 113.36328125 C173.28194824 113.99500244 172.16545898 114.62672363 171.01513672 115.27758789 C169.80176234 115.95590002 168.58838331 116.63420384 167.375 117.3125 C166.11301227 118.02454459 164.85146267 118.73736621 163.59033203 119.45092773 C161.64596335 120.55093263 159.70133341 121.65044428 157.75534058 122.74757385 C151.43720887 126.30991422 145.15343878 129.93070312 138.875 133.5625 C136.72398019 134.80472534 134.57293851 136.04691282 132.421875 137.2890625 C130.28120611 138.52596571 128.14058106 139.76294479 126 141 C112.05155632 149.06089304 98.08996112 157.09709426 84.09527588 165.07736206 C75.06183724 170.23042721 66.06722152 175.44690219 57.09301758 180.70239258 C48.09494961 185.96377844 39.0448266 191.1318007 29.98461914 196.28515625 C24.81660103 199.22748357 19.65953896 202.18333142 14.5546875 205.234375 C13.3644397 205.9454541 13.3644397 205.9454541 12.15014648 206.67089844 C10.72413346 207.52748179 9.3014816 208.38969826 7.88305664 209.25878906 C3.32576348 212 3.32576348 212 0 212 C0 142.04 0 72.08 0 0 Z " fill="#24323B" transform="translate(194,142)"/>
<path d="M0 0 C3.83602222 1.53440889 6.91651529 3.02927801 10.41015625 5.1328125 C11.46928223 5.76654785 12.5284082 6.4002832 13.61962891 7.05322266 C14.18014954 7.39057434 14.74067017 7.72792603 15.31817627 8.07550049 C18.32031252 9.88178247 21.32942218 11.67631871 24.33984375 13.46875 C24.96435425 13.84061432 25.58886475 14.21247864 26.2322998 14.59561157 C34.29338948 19.38087021 42.4534165 23.99436101 50.62133789 28.59423828 C56.92367463 32.1631708 63.05042987 35.86691698 69 40 C66.07370751 43.17440814 63.15654511 45.2534503 59.3984375 47.36328125 C58.28057861 47.99580811 57.16271973 48.62833496 56.01098633 49.2800293 C54.79901698 49.9575662 53.5870209 50.6350553 52.375 51.3125 C51.12547338 52.01723768 49.87637418 52.72273368 48.62768555 53.42895508 C46.69651473 54.52112194 44.7651169 55.6128578 42.8323822 56.70225525 C36.1303914 60.48122131 29.47037034 64.33149549 22.8125 68.1875 C18.87908271 70.46551654 14.94276502 72.7381985 11 75 C10.12134277 75.50611816 9.24268555 76.01223633 8.33740234 76.53369141 C7.52867676 76.99308105 6.71995117 77.4524707 5.88671875 77.92578125 C4.82843872 78.52966675 4.82843872 78.52966675 3.7487793 79.14575195 C2 80 2 80 0 80 C0 53.6 0 27.2 0 0 Z " fill="#FBFBFB" transform="translate(144,55)"/>
<path d="M0 0 C3.45994341 0.86498585 5.54967515 1.72277993 8.578125 3.44921875 C9.47966309 3.96057373 10.38120117 4.47192871 11.31005859 4.9987793 C12.76532959 5.83469604 12.76532959 5.83469604 14.25 6.6875 C15.26271973 7.2647583 16.27543945 7.8420166 17.31884766 8.43676758 C26.69297446 13.79310238 36.02709556 19.21859385 45.3359375 24.6875 C48.97070448 26.82167511 52.61957518 28.92612277 56.2890625 31 C57.49103271 31.68606323 57.49103271 31.68606323 58.71728516 32.38598633 C60.19886424 33.23072409 61.68529366 34.06703189 63.17724609 34.89331055 C65.125 36.01171875 65.125 36.01171875 68 38 C68 38.99 68 39.98 68 41 C65.7782272 42.55841492 63.61520678 43.87476144 61.25 45.1875 C60.5084668 45.61111816 59.76693359 46.03473633 59.00292969 46.47119141 C57.30543814 47.43948841 55.6050153 48.40265727 53.90234375 49.36181641 C50.71874173 51.15875193 47.54628365 52.9743847 44.375 54.79296875 C39.59540031 57.5335542 34.81123778 60.26595569 30.0234375 62.9921875 C25.54080706 65.54499913 21.06689018 68.11233091 16.6015625 70.6953125 C15.62928711 71.25621582 14.65701172 71.81711914 13.65527344 72.39501953 C11.84146342 73.44208548 10.02951992 74.49239342 8.21972656 75.54638672 C7.42276367 76.0054541 6.62580078 76.46452148 5.8046875 76.9375 C5.11358887 77.33839844 4.42249023 77.73929687 3.71044922 78.15234375 C2 79 2 79 0 79 C0 52.93 0 26.86 0 0 Z " fill="#FBFBFB" transform="translate(144,361)"/>
<path d="M0 0 C7.94788301 3.9739415 15.62968969 7.98739595 23.25 12.5 C25.33844883 13.72802247 27.42699347 14.95588204 29.515625 16.18359375 C30.57845703 16.80991699 31.64128906 17.43624023 32.73632812 18.08154297 C36.0219851 20.01292332 39.31431555 21.93236636 42.609375 23.84765625 C43.68026367 24.47027344 44.75115234 25.09289062 45.85449219 25.734375 C47.89647612 26.92114741 49.93877552 28.10737724 51.98144531 29.29296875 C57.3824221 32.43779415 62.71973017 35.65624422 68 39 C66.74327861 42.77016416 65.70437669 43.00711403 62.27734375 44.86328125 C61.27574219 45.41338867 60.27414062 45.96349609 59.2421875 46.53027344 C57.60636719 47.41247559 57.60636719 47.41247559 55.9375 48.3125 C53.64350393 49.57234997 51.3505611 50.83411932 49.05859375 52.09765625 C48.47165741 52.4201535 47.88472107 52.74265076 47.27999878 53.07492065 C41.29643186 56.36920022 35.39245242 59.79565582 29.5 63.25 C28.51435059 63.8267749 27.52870117 64.4035498 26.51318359 64.99780273 C21.92080786 67.68902543 17.33510434 70.39136161 12.75390625 73.1015625 C11.95597656 73.57303711 11.15804688 74.04451172 10.3359375 74.53027344 C8.85934235 75.40367186 7.38400574 76.2792028 5.91015625 77.15722656 C1.11010306 80 1.11010306 80 0 80 C0 53.6 0 27.2 0 0 Z " fill="#FDFDFD" transform="translate(408,208)"/>
</svg>
