<svg width="68" height="85" viewBox="0 0 68 85" fill="none" xmlns="http://www.w3.org/2000/svg">
<path fill-rule="evenodd" clip-rule="evenodd" d="M61.5394 79.74H14.155C10.8198 79.74 8.08984 77.0019 8.08984 73.6555V6.08305C8.08984 2.73669 10.8198 0 14.155 0H61.5394C64.8759 0 67.6059 2.73669 67.6059 6.08305V73.6555C67.6059 77.0019 64.8759 79.74 61.5394 79.74Z" fill="#E0E2EE"/>
<path fill-rule="evenodd" clip-rule="evenodd" d="M57.4945 82.6291H10.1101C6.77492 82.6291 4.04492 79.8911 4.04492 76.5447V8.97221C4.04492 5.62585 6.77492 2.88916 10.1101 2.88916H57.4945C60.831 2.88916 63.561 5.62585 63.561 8.97221V76.5447C63.561 79.8911 60.831 82.6291 57.4945 82.6291Z" fill="#E8EBF2"/>
<path fill-rule="evenodd" clip-rule="evenodd" d="M53.56 84.9098H6.07768C2.73564 84.9098 0 82.1831 0 78.8506V11.5579C0 8.22536 2.73564 5.5 6.07768 5.5H53.56C56.9034 5.5 59.6391 8.22536 59.6391 11.5579V78.8506C59.6391 82.1831 56.9034 84.9098 53.56 84.9098Z" fill="#D8DBEA"/>
<path fill-rule="evenodd" clip-rule="evenodd" d="M53.56 84.9098H6.07768C2.73564 84.9098 0 82.1831 0 78.8506V11.5579C0 8.22536 2.73564 5.5 6.07768 5.5H53.56C56.9034 5.5 59.6391 8.22536 59.6391 11.5579V78.8506C59.6391 82.1831 56.9034 84.9098 53.56 84.9098Z" fill="#F1F2F7"/>
<path fill-rule="evenodd" clip-rule="evenodd" d="M46.7171 26.0021H11.6456C10.6441 26.0021 9.82422 25.2221 9.82422 24.2693C9.82422 23.3151 10.6441 22.5352 11.6456 22.5352H46.7171C47.7187 22.5352 48.5385 23.3151 48.5385 24.2693C48.5385 25.2221 47.7187 26.0021 46.7171 26.0021Z" fill="#E0E2EE"/>
<path fill-rule="evenodd" clip-rule="evenodd" d="M46.7171 36.403H11.6456C10.6441 36.403 9.82422 35.623 9.82422 34.6702C9.82422 33.716 10.6441 32.936 11.6456 32.936H46.7171C47.7187 32.936 48.5385 33.716 48.5385 34.6702C48.5385 35.623 47.7187 36.403 46.7171 36.403Z" fill="#E0E2EE"/>
<path fill-rule="evenodd" clip-rule="evenodd" d="M46.7171 46.8039H11.6456C10.6441 46.8039 9.82422 46.0239 9.82422 45.071C9.82422 44.1182 10.6441 43.3369 11.6456 43.3369H46.7171C47.7187 43.3369 48.5385 44.1182 48.5385 45.071C48.5385 46.0239 47.7187 46.8039 46.7171 46.8039Z" fill="#E0E2EE"/>
<path fill-rule="evenodd" clip-rule="evenodd" d="M46.7171 57.2047H11.6456C10.6441 57.2047 9.82422 56.4248 9.82422 55.4719C9.82422 54.5178 10.6441 53.7378 11.6456 53.7378H46.7171C47.7187 53.7378 48.5385 54.5178 48.5385 55.4719C48.5385 56.4248 47.7187 57.2047 46.7171 57.2047Z" fill="#E0E2EE"/>
<path fill-rule="evenodd" clip-rule="evenodd" d="M29.9524 67.6056H11.6534C10.6476 67.6056 9.82422 66.8257 9.82422 65.8728C9.82422 64.9186 10.6476 64.1387 11.6534 64.1387H29.9524C30.9582 64.1387 31.7816 64.9186 31.7816 65.8728C31.7816 66.8257 30.9582 67.6056 29.9524 67.6056Z" fill="#E0E2EE"/>
</svg>
